{"glyphs":{":":{"x_min":0,"x_max":112,"ha":112,"o":"m 71 154 q 67 154 63 152 q 59 149 59 143 q 59 140 60 138 q 56 135 56 130 q 56 126 59 123 q 62 120 67 120 q 71 120 74 122 q 85 132 84 142 q 83 150 76 153 q 74 154 72 154 q 72 154 71 154 z m 74 134 q 72 133 70 133 q 72 133 74 134 z m 53 98 q 49 98 45 96 q 41 93 41 87 q 41 84 42 82 q 38 79 38 74 q 38 70 41 67 q 44 64 49 64 q 53 64 56 66 q 67 76 66 86 q 65 94 58 97 q 56 98 54 98 q 54 98 53 98 z m 56 78 q 54 77 52 77 q 54 77 56 78 z"},"$":{"x_min":0,"x_max":250,"ha":250,"o":"m 213 265 q 207 264 204 258 q 204 258 200 247 q 196 236 191 225 l 187 214 q 185 214 184 214 q 176 214 167 211 q 154 207 147 197 q 141 188 140 174 q 138 157 147 123 q 159 74 159 70 q 164 44 159 32 q 154 21 149 21 q 145 20 139 27 q 132 35 128 50 q 123 66 125 79 q 125 80 125 81 q 125 90 116 91 q 115 91 114 91 q 105 91 104 82 q 100 52 115 26 l 94 -26 q 93 -28 93 -30 q 93 -37 99 -40 q 101 -41 103 -41 q 110 -41 113 -34 l 130 8 q 140 -1 152 0 q 169 2 178 24 q 186 42 180 74 q 179 79 167 128 q 159 158 161 173 q 161 180 164 184 q 167 189 174 191 q 181 194 185 193 q 188 192 189 191 q 193 186 193 173 q 193 166 191 156 q 189 147 188 141 l 186 135 q 186 134 186 132 q 186 125 193 122 q 194 122 196 122 q 203 122 206 129 q 213 151 214 173 q 214 194 205 204 l 224 250 q 224 252 224 254 q 224 261 218 264 q 216 265 214 265 q 214 265 213 265 z"},"?":{"x_min":0,"x_max":314,"ha":314,"o":"m 201 292 q 166 291 142 270 q 123 252 116 224 q 110 196 118 162 q 120 154 128 154 q 130 154 131 155 q 139 157 139 165 q 139 166 138 167 q 124 224 156 255 q 190 285 245 262 q 253 258 262 248 q 270 237 271 223 q 274 182 207 134 q 121 71 97 15 q 96 13 96 11 q 96 4 102 2 q 104 1 106 1 q 113 1 116 7 q 138 57 219 117 q 295 172 292 225 q 291 245 279 260 q 267 275 253 281 q 228 291 205 292 q 203 292 201 292 z m 83 -13 q 79 -13 75 -15 q 71 -19 71 -24 q 71 -27 72 -29 q 68 -32 68 -37 q 68 -41 71 -44 q 74 -47 79 -47 q 83 -47 86 -45 q 97 -35 96 -25 q 95 -17 88 -14 q 86 -13 84 -13 q 84 -13 83 -13 z m 86 -33 q 84 -34 82 -34 q 84 -34 86 -33 z"},"<":{"x_min":0,"x_max":162,"ha":162,"o":"m 230 224 q 230 225 229 225 q 226 225 223 222 l 54 93 q 50 90 50 85 q 50 82 51 79 q 51 79 66 54 q 81 29 96 4 l 111 -22 q 114 -27 120 -27 q 123 -27 125 -25 q 130 -22 130 -16 q 130 -13 129 -11 q 129 -11 115 12 q 101 36 88 59 l 74 82 l 235 206 q 239 209 239 214 q 239 218 237 220 q 235 224 230 224 z"},"'":{"x_min":0,"x_max":130,"ha":130,"o":"m 72 444 q 72 442 71 441 q 71 439 70 435 q 68 431 67 429 q 63 415 68 406 q 73 397 82 402 q 91 407 86 416 q 85 417 86 421 q 87 423 90 430 q 95 443 91 451 q 87 461 78 457 q 69 453 72 444 z"},"=":{"x_min":0,"x_max":252,"ha":252,"o":"m 132 152 q 128 152 125 149 q 122 146 122 142 q 122 137 125 134 q 128 131 132 131 q 132 131 157 131 q 182 131 208 131 l 233 131 q 237 131 240 134 q 243 137 243 142 q 243 146 240 149 q 237 152 233 152 l 233 152 l 232 152 l 232 152 l 231 152 l 231 152 l 230 152 l 229 152 l 228 152 l 227 152 l 226 152 l 225 152 l 224 152 l 223 152 l 222 152 l 221 152 l 220 152 l 219 152 l 218 152 l 217 152 l 216 152 l 215 152 l 214 152 l 213 152 l 212 152 l 211 152 l 210 152 l 209 152 l 207 152 l 206 152 l 205 152 l 204 152 l 203 152 l 201 152 l 200 152 l 199 152 l 197 152 l 196 152 l 195 152 l 193 152 l 192 152 l 191 152 l 189 152 l 188 152 l 186 152 l 185 152 l 183 152 l 182 152 l 180 152 l 179 152 l 177 152 l 176 152 l 174 152 l 173 152 l 171 152 l 169 152 l 168 152 l 166 152 l 164 152 l 163 152 l 161 152 l 160 152 l 158 152 l 156 152 l 154 152 l 153 152 l 151 152 l 149 152 l 147 152 l 146 152 l 144 152 l 142 152 l 140 152 z m 114 108 q 110 108 107 105 q 104 102 104 98 q 104 93 107 90 q 110 87 114 87 q 114 87 139 87 q 164 87 190 87 l 215 87 q 219 87 222 90 q 225 93 225 98 q 225 102 222 105 q 219 108 215 108 l 215 108 l 214 108 l 214 108 l 213 108 l 213 108 l 212 108 l 211 108 l 210 108 l 209 108 l 208 108 l 207 108 l 206 108 l 205 108 l 204 108 l 203 108 l 202 108 l 201 108 l 200 108 l 199 108 l 198 108 l 197 108 l 196 108 l 195 108 l 194 108 l 193 108 l 192 108 l 191 108 l 189 108 l 188 108 l 187 108 l 186 108 l 185 108 l 183 108 l 182 108 l 181 108 l 179 108 l 178 108 l 177 108 l 175 108 l 174 108 l 173 108 l 171 108 l 170 108 l 168 108 l 167 108 l 165 108 l 164 108 l 162 108 l 161 108 l 159 108 l 158 108 l 156 108 l 155 108 l 153 108 l 151 108 l 150 108 l 148 108 l 146 108 l 145 108 l 143 108 l 142 108 l 140 108 l 138 108 l 136 108 l 135 108 l 133 108 l 131 108 l 129 108 l 128 108 l 126 108 l 124 108 l 122 108 z"},"a":{"x_min":0,"x_max":183,"ha":183,"o":"m 131 151 q 132 152 133 154 q 139 161 143 164 q 147 167 151 166 q 163 164 161 150 q 157 123 114 74 q 106 56 104 43 q 102 33 103 27 q 103 23 105 22 q 108 19 115 20 q 121 21 129 25 q 160 40 227 104 q 235 111 242 104 q 249 96 242 89 q 172 23 138 7 q 108 -8 91 6 q 85 11 83 21 q 81 30 83 43 q 78 39 74 35 q 50 14 35 6 q 25 0 17 0 q 9 -1 5 5 q -1 11 1 22 q 5 41 30 82 q 55 122 79 146 q 98 167 115 163 q 124 161 131 151 z m 119 132 q 116 133 115 136 q 115 138 114 139 q 112 142 110 142 q 108 143 106 142 q 101 139 94 132 q 76 113 56 83 q 35 53 26 32 q 25 28 23 23 q 24 23 24 24 q 37 31 60 51 q 80 68 96 86 q 106 109 119 132 z m 135 143 z"},"L":{"x_min":0,"x_max":664,"ha":664,"o":"m 585 485 q 590 494 599 490 q 608 485 604 475 q 583 434 550 366 q 517 298 446 134 q 376 -31 342 -139 q 310 -241 310 -293 q 310 -310 313 -321 q 317 -331 323 -335 q 343 -349 377 -343 q 408 -337 451 -314 q 507 -284 576 -228 q 644 -173 685 -133 l 725 -92 q 732 -85 740 -92 q 747 -99 740 -107 q 734 -113 723 -124 q 712 -135 679 -166 q 646 -197 614 -224 q 582 -251 540 -282 q 497 -313 461 -333 q 405 -362 365 -365 q 333 -367 311 -353 q 296 -342 291 -317 q 285 -286 296 -230 q 316 -129 388 50 q 461 229 523 357 z"},"3":{"x_min":0,"x_max":160,"ha":160,"o":"m 171 302 q 147 302 124 286 q 101 269 90 253 q 78 237 78 230 q 78 222 86 220 q 94 218 97 225 q 112 253 133 267 q 154 281 171 281 q 194 281 193 260 q 189 223 144 189 q 130 178 114 170 q 98 161 89 157 l 79 153 q 70 150 74 140 q 77 130 86 133 q 95 136 107 136 q 126 136 138 126 q 149 117 149 103 q 149 86 134 67 q 119 48 98 35 q 78 22 54 22 q 30 23 15 42 q 10 48 3 46 q -4 43 -4 35 q -4 32 -1 29 q 19 4 49 2 q 79 0 106 15 q 132 30 151 54 q 170 79 170 103 q 170 121 158 135 q 146 149 129 154 q 208 200 213 258 q 215 279 202 290 q 190 302 171 302 z"},";":{"x_min":0,"x_max":114,"ha":114,"o":"m 73 150 q 69 150 66 148 q 61 144 61 139 q 61 136 62 134 q 59 131 59 126 q 59 122 61 119 q 64 116 69 116 q 73 116 76 118 q 87 128 86 138 q 85 146 78 149 q 76 150 75 150 q 74 150 73 150 z m 77 130 q 75 129 72 129 q 72 129 73 129 q 75 129 77 130 z m 63 95 q 61 95 59 95 q 52 95 48 92 q 43 89 43 83 q 43 80 45 77 q 48 73 53 73 q 54 73 55 73 q 51 68 45 63 q 42 60 42 56 q 42 51 45 48 q 48 45 52 45 q 57 45 60 48 q 73 61 77 70 q 80 76 80 81 q 79 87 74 91 q 69 95 63 95 z"},"J":{"x_min":0,"x_max":720,"ha":720,"o":"m 615 60 q 723 258 823 489 l 392 267 q 383 262 378 272 q 374 281 383 286 l 839 521 q 845 524 850 519 q 856 514 853 508 q 757 277 634 52 q 675 34 698 8 q 705 0 698 -7 q 690 -14 683 -6 q 662 18 624 34 q 531 -134 453 -234 q 370 -339 305 -366 q 253 -388 213 -360 q 167 -328 181 -236 q 190 -178 220 -117 q 251 -56 288 -21 q 330 18 376 42 q 422 65 464 72 q 507 78 544 75 q 581 72 615 60 z m 605 42 q 573 53 538 55 q 504 57 465 50 q 426 44 384 22 q 341 -1 302 -37 q 268 -69 239 -126 q 210 -184 202 -239 q 196 -277 201 -304 q 207 -331 225 -343 q 263 -369 318 -336 q 371 -304 436 -221 q 513 -122 605 42 z"},"V":{"x_min":0,"x_max":636,"ha":636,"o":"m 713 319 q 712 321 711 323 q 709 337 719 361 q 736 397 776 445 q 816 493 835 504 q 842 508 848 502 q 854 496 849 489 q 804 420 739 321 q 742 317 741 312 q 738 303 728 305 q 434 -138 300 -313 q 250 -379 225 -403 q 212 -415 203 -418 q 196 -420 190 -416 q 185 -412 183 -405 q 177 -388 191 -330 q 212 -243 274 -64 q 335 115 387 249 l 438 384 q 442 394 452 390 q 461 386 457 377 q 435 319 400 228 q 366 137 299 -56 q 232 -248 211 -335 q 202 -373 202 -390 q 202 -392 202 -395 q 205 -393 210 -388 q 235 -364 284 -300 q 419 -124 713 319 z"},"\"":{"x_min":0,"x_max":164,"ha":164,"o":"m 111 444 q 111 442 110 441 q 110 439 108 435 q 107 431 106 429 q 102 415 107 406 q 112 397 121 402 q 130 407 125 416 q 125 417 126 422 q 126 423 129 430 q 134 444 131 451 q 127 461 117 457 q 108 453 111 444 z m 82 444 q 82 442 81 441 q 81 439 80 435 q 78 431 77 429 q 73 415 78 406 q 83 397 92 402 q 101 407 96 416 q 95 417 96 421 q 97 423 100 430 q 105 443 101 451 q 97 461 88 457 q 79 453 82 444 z"},"7":{"x_min":0,"x_max":175,"ha":175,"o":"m 157 150 q 163 150 166 155 q 169 160 166 165 q 163 170 157 170 l 155 170 q 181 225 204 256 q 221 279 232 283 q 239 287 238 295 q 236 303 228 303 l 86 303 q 76 303 76 292 q 76 282 86 282 l 199 282 q 168 247 132 170 l 104 170 q 94 170 94 160 q 94 150 104 150 l 122 150 q 83 59 83 23 q 83 0 100 1 q 113 3 114 13 q 114 24 104 24 q 104 59 145 150 z"},"S":{"x_min":0,"x_max":541,"ha":541,"o":"m 393 -120 q 425 -180 436 -224 q 446 -267 442 -285 q 437 -303 425 -320 q 401 -353 354 -374 q 308 -396 268 -396 q 219 -396 219 -363 q 219 -336 253 -290 q 315 -208 393 -120 z m 348 -8 q 227 173 324 321 q 389 419 523 468 q 639 512 719 488 q 777 472 781 423 q 781 414 792 414 q 796 414 800 418 q 803 421 802 425 q 796 496 708 512 q 612 531 490 478 q 354 419 295 312 q 210 160 331 -19 q 361 -63 382 -101 q 301 -192 236 -278 q 198 -329 198 -363 q 198 -406 246 -414 q 293 -423 352 -399 q 411 -375 442 -332 q 458 -310 462 -284 q 467 -257 454 -211 q 442 -165 408 -104 q 454 -53 501 -5 q 548 43 572 65 l 596 88 q 601 92 600 98 q 598 104 592 106 q 587 107 582 103 q 498 26 397 -85 q 376 -49 348 -8 z"},"}":{"x_min":0,"x_max":185,"ha":185,"o":"m 135 232 q 132 232 129 231 q 120 230 120 221 q 120 220 120 219 q 122 211 131 211 q 132 211 132 211 q 140 212 143 211 q 145 210 145 207 q 147 198 140 176 q 135 165 128 151 q 122 137 117 129 l 113 121 q 111 119 111 116 q 111 112 113 109 q 113 109 118 104 q 123 98 127 92 l 132 87 l 106 83 q 98 81 98 73 q 91 2 68 -11 q 64 -13 60 -14 q 56 -14 54 -13 l 53 -11 q 50 -10 47 -10 q 41 -10 38 -15 q 37 -17 37 -20 q 37 -26 42 -29 q 60 -40 78 -29 q 109 -12 117 63 l 153 69 q 162 70 162 79 q 162 83 160 86 q 160 86 154 94 q 147 101 140 109 l 134 117 q 150 144 159 169 q 169 196 166 212 q 163 224 153 229 q 146 233 135 232 z"},"Z":{"x_min":0,"x_max":721,"ha":721,"o":"m 420 -265 q 449 -216 454 -176 q 459 -144 446 -128 q 435 -113 408 -110 q 376 -108 326 -123 q 316 -126 313 -116 q 310 -107 319 -104 q 409 -68 486 -18 q 564 31 618 86 q 672 140 708 196 q 744 251 761 304 q 783 368 771 418 q 759 467 714 485 q 631 517 518 449 q 446 405 380 334 q 315 262 281 197 q 258 153 257 128 q 257 118 261 114 q 265 110 274 110 q 278 110 281 106 q 284 103 284 99 q 284 95 281 92 q 278 89 274 89 q 259 89 250 96 q 240 103 238 116 q 231 147 262 206 q 298 273 366 347 q 433 421 507 467 q 629 541 722 504 q 774 484 790 428 q 805 371 781 297 q 748 195 650 90 q 553 -16 404 -89 q 407 -89 410 -90 q 445 -93 463 -115 q 481 -138 475 -179 q 470 -213 449 -254 q 526 -228 575 -225 q 586 -224 586 -234 q 587 -245 577 -245 q 521 -249 434 -282 q 429 -289 427 -293 q 381 -362 332 -389 q 293 -409 267 -392 q 257 -385 256 -375 q 255 -363 267 -349 q 293 -321 368 -287 q 393 -275 420 -265 z m 400 -295 q 337 -322 302 -347 q 284 -360 278 -369 q 277 -372 277 -373 q 277 -374 279 -375 q 294 -385 322 -370 q 361 -349 400 -295 z"},"x":{"x_min":0,"x_max":221,"ha":221,"o":"m 116 34 q 78 5 38 0 q 26 -2 18 4 q 9 13 11 31 q 14 54 36 92 q 57 129 77 151 q 89 163 97 166 q 104 169 110 165 q 114 162 115 157 q 117 150 115 139 q 108 99 121 66 q 126 71 133 78 q 147 93 167 118 q 187 144 193 150 q 210 168 223 157 q 231 150 224 142 q 219 136 212 139 q 210 138 208 136 q 203 131 197 123 q 152 67 137 53 q 136 52 134 50 q 133 49 132 48 q 141 37 153 34 q 171 30 196 44 q 226 60 263 102 q 270 110 278 103 q 286 96 279 88 q 232 36 193 20 q 169 9 148 14 q 129 18 116 34 z m 94 138 q 87 131 78 118 q 41 68 33 33 q 31 26 31 23 q 31 22 32 20 q 34 20 35 20 q 71 25 105 52 q 86 90 94 138 z"},")":{"x_min":0,"x_max":186,"ha":186,"o":"m 132 221 q 124 219 124 211 q 124 210 124 209 q 132 168 127 133 q 122 98 107 70 q 92 41 76 20 q 60 0 48 -10 l 36 -21 q 32 -25 32 -30 q 32 -33 34 -36 q 37 -40 42 -40 q 46 -40 48 -38 q 50 -36 53 -34 q 56 -32 64 -24 q 73 -15 81 -6 q 89 3 100 18 q 110 32 118 47 q 127 62 134 82 q 142 102 146 122 q 150 142 150 166 q 150 190 144 214 q 142 222 134 222 q 133 222 132 221 z"},"&":{"x_min":0,"x_max":372,"ha":372,"o":"m 174 247 q 171 248 169 247 q 163 246 154 240 q 136 228 134 208 q 133 192 141 173 q 120 128 115 116 q 83 46 81 13 q 79 -13 94 -23 q 109 -34 139 -25 q 202 -4 259 43 q 272 32 285 22 q 298 12 305 7 l 311 2 q 314 1 317 1 q 323 1 326 5 q 328 8 328 11 q 328 16 323 19 q 302 35 275 57 q 300 80 321 106 q 342 131 351 145 l 360 160 q 361 162 361 165 q 361 171 356 174 q 353 175 351 175 q 345 175 342 170 q 313 119 259 70 q 235 91 217 109 q 180 145 164 173 q 174 194 179 205 q 183 215 184 222 q 187 231 186 237 q 184 243 179 246 q 177 247 174 247 z m 162 219 q 161 219 160 217 q 160 215 159 213 q 159 212 155 203 q 155 205 155 206 q 156 214 162 219 z m 154 150 q 171 125 202 94 q 220 76 243 57 q 190 14 132 -5 q 112 -11 106 -6 q 101 -3 102 12 q 104 40 134 107 q 139 119 154 150 z"},"_":{"x_min":0,"x_max":284,"ha":284,"o":"m 48 21 q 44 21 41 18 q 38 15 38 10 q 38 6 41 3 q 44 0 48 0 l 254 0 q 258 0 261 3 q 264 6 264 10 q 264 15 261 18 q 258 21 254 21 l 254 21 l 253 21 l 253 21 l 253 21 l 252 21 l 252 21 l 251 21 l 251 21 l 250 21 l 249 21 l 249 21 l 248 21 l 247 21 l 246 21 l 245 21 l 244 21 l 243 21 l 242 21 l 241 21 l 240 21 l 239 21 l 238 21 l 237 21 l 236 21 l 235 21 l 234 21 l 233 21 l 232 21 l 231 21 l 230 21 l 229 21 l 228 21 l 227 21 l 226 21 l 225 21 l 224 21 l 223 21 l 222 21 l 221 21 l 220 21 l 219 21 l 218 21 l 217 21 l 216 21 l 215 21 l 214 21 l 213 21 l 212 21 l 211 21 l 209 21 l 208 21 l 207 21 l 206 21 l 205 21 l 204 21 l 202 21 l 201 21 l 200 21 l 199 21 l 198 21 l 196 21 l 195 21 l 194 21 l 193 21 l 191 21 l 190 21 l 189 21 l 188 21 l 186 21 l 185 21 l 184 21 l 182 21 l 181 21 l 180 21 l 178 21 l 177 21 l 176 21 l 174 21 l 173 21 l 172 21 l 170 21 l 169 21 l 167 21 l 166 21 l 165 21 l 163 21 l 162 21 l 160 21 l 159 21 l 157 21 l 156 21 l 154 21 l 153 21 l 151 21 l 150 21 l 148 21 l 147 21 l 145 21 l 144 21 l 142 21 l 141 21 l 139 21 l 138 21 l 136 21 l 134 21 l 133 21 l 131 21 l 130 21 l 128 21 l 127 21 l 125 21 l 123 21 l 122 21 l 120 21 l 118 21 l 117 21 l 115 21 l 114 21 l 112 21 l 110 21 l 109 21 l 107 21 l 105 21 l 103 21 l 102 21 l 100 21 l 98 21 l 97 21 l 95 21 l 93 21 l 91 21 l 90 21 l 88 21 l 86 21 l 84 21 l 83 21 l 81 21 l 79 21 l 77 21 l 76 21 l 74 21 l 72 21 l 70 21 l 68 21 l 67 21 l 65 21 l 63 21 l 61 21 l 59 21 l 57 21 z"},"v":{"x_min":0,"x_max":119,"ha":119,"o":"m 39 24 q 40 24 40 25 q 49 32 63 49 q 88 78 108 104 q 129 130 137 142 l 145 154 q 151 162 160 156 q 168 150 163 142 q 135 102 79 35 q 53 4 39 0 q 30 -2 24 3 q 19 7 18 15 q 16 25 21 45 q 32 89 63 145 q 68 155 78 150 q 87 145 82 135 q 54 84 42 43 q 40 35 39 24 z"},"O":{"x_min":0,"x_max":742,"ha":742,"o":"m 313 -48 q 285 -33 268 -8 q 231 48 259 143 q 282 219 342 300 q 402 382 478 441 q 591 528 691 529 q 756 530 776 468 q 794 416 776 322 q 749 183 660 4 q 571 -174 476 -282 q 425 -341 382 -364 q 349 -382 323 -379 q 269 -373 256 -317 q 246 -274 263 -202 q 277 -135 313 -48 z m 332 -56 q 279 -186 274 -265 q 268 -352 325 -358 q 345 -360 372 -346 q 412 -324 461 -268 q 554 -162 642 14 q 729 189 755 326 q 772 414 757 461 q 741 509 691 508 q 598 507 490 424 q 417 367 359 288 q 301 210 279 137 q 253 51 285 3 q 298 -16 321 -28 q 333 0 346 28 q 358 55 365 68 l 372 82 q 377 91 386 86 q 395 81 390 72 q 366 26 340 -37 q 375 -49 428 -48 q 438 -47 438 -58 q 439 -68 428 -69 q 372 -70 332 -56 z"},"(":{"x_min":0,"x_max":174,"ha":174,"o":"m 219 224 q 219 225 218 225 q 215 225 212 222 q 210 221 207 218 q 204 216 196 208 q 187 199 179 190 q 171 181 160 166 q 150 152 142 137 q 133 122 126 102 q 118 83 114 63 q 110 43 110 19 q 110 -5 116 -29 q 118 -37 126 -37 q 127 -37 128 -37 q 136 -35 136 -27 q 136 -25 136 -24 q 128 17 134 52 q 139 87 154 116 q 169 144 184 164 q 200 184 212 195 l 225 206 q 229 209 229 214 q 229 218 226 221 q 224 224 219 224 z"},"C":{"x_min":0,"x_max":817,"ha":817,"o":"m 798 396 q 798 385 788 384 q 778 384 777 394 q 775 413 767 431 q 758 451 744 456 q 723 463 688 438 q 574 356 365 -37 q 279 -198 260 -279 q 250 -325 261 -343 q 269 -356 296 -352 q 337 -345 414 -296 q 484 -251 576 -178 q 667 -104 724 -52 l 780 -1 q 788 6 795 -2 q 802 -9 794 -16 q 771 -38 732 -74 q 692 -109 594 -189 q 496 -269 425 -314 q 345 -365 299 -372 q 259 -379 243 -354 q 227 -329 240 -275 q 259 -190 346 -27 q 558 370 676 455 q 719 486 750 475 q 773 468 786 440 q 798 415 798 396 z m 798 396 z"},"W":{"x_min":0,"x_max":900,"ha":900,"o":"m 165 -364 q 166 -364 167 -363 q 178 -353 198 -326 q 246 -264 332 -120 q 418 23 480 134 l 542 246 q 546 253 554 250 q 563 248 562 240 q 528 -21 571 -144 q 594 -210 632 -216 q 653 -218 676 -204 q 701 -188 726 -155 q 792 -65 833 113 q 874 291 865 524 q 864 534 874 534 q 885 535 886 525 q 895 287 853 106 q 811 -76 743 -167 q 685 -244 630 -236 q 578 -229 551 -151 q 512 -37 535 190 q 310 -214 215 -339 q 197 -363 185 -374 q 175 -384 168 -386 q 161 -388 156 -386 q 150 -384 147 -377 q 144 -369 145 -354 q 148 -324 165 -258 q 193 -154 256 32 q 318 218 367 352 l 415 485 q 419 495 428 492 q 438 488 434 478 q 248 -30 185 -263 q 171 -318 167 -346 q 165 -359 165 -364 z"},"A":{"x_min":0,"x_max":773,"ha":773,"o":"m 427 36 q 580 310 676 429 q 720 484 751 506 q 776 523 795 520 q 816 517 825 495 q 835 469 827 415 q 811 309 726 90 l 812 103 q 822 105 824 94 q 825 84 815 82 q 775 77 718 67 q 683 -21 640 -119 q 598 -217 574 -270 l 549 -324 q 544 -333 535 -328 q 526 -324 530 -315 q 617 -130 694 64 q 539 38 440 17 q 388 -77 334 -180 q 279 -284 251 -340 l 223 -397 q 219 -406 210 -402 q 200 -397 205 -387 q 299 -195 413 11 q 358 -1 329 -11 q 316 -15 310 -19 q 314 -24 311 -30 q 307 -39 298 -35 q 288 -31 285 -24 q 282 -15 291 -7 q 299 0 323 9 q 357 20 427 36 z m 703 86 q 790 310 806 418 q 812 458 808 480 q 804 498 792 499 q 781 501 763 488 q 734 469 692 416 q 600 301 454 41 q 554 62 703 86 z"},"f":{"x_min":0,"x_max":166,"ha":166,"o":"m -5 -9 q 20 49 49 115 q 86 200 105 242 q 124 284 146 327 q 168 370 183 388 q 194 403 203 408 q 217 415 228 407 q 238 400 236 383 q 234 368 209 309 q 206 300 196 304 q 186 308 190 317 q 211 368 214 379 q 215 385 215 388 q 215 389 215 390 q 214 391 211 388 q 206 384 199 376 q 185 358 163 314 q 141 271 124 232 q 107 194 68 106 q 46 58 27 12 q 63 34 109 58 q 155 81 183 92 l 211 104 q 221 108 225 98 q 229 89 219 85 q 92 34 12 -23 q -13 -83 -29 -123 q 0 -149 -16 -190 q -26 -214 -43 -221 q -50 -224 -57 -221 q -64 -219 -67 -211 q -74 -193 -59 -147 q -57 -140 -53 -129 q -69 -115 -70 -97 q -72 -69 -39 -37 q -25 -24 -5 -9 z m -37 -145 q -38 -150 -40 -153 q -48 -178 -49 -193 q -49 -197 -49 -199 q -41 -193 -38 -187 q -26 -163 -37 -145 z m -22 -50 q -23 -51 -24 -52 q -39 -67 -46 -80 q -51 -92 -48 -101 q -47 -104 -45 -107 q -35 -82 -22 -50 z"},"Q":{"x_min":0,"x_max":752,"ha":752,"o":"m 486 -286 q 408 -362 330 -363 q 263 -364 238 -311 q 213 -258 228 -167 q 249 -35 335 136 q 421 307 519 415 q 612 517 681 518 q 725 519 750 481 q 767 455 767 420 q 767 384 748 346 q 744 336 734 341 q 725 346 730 355 q 746 386 746 418 q 746 449 732 469 q 714 498 681 497 q 658 497 628 480 q 585 456 535 401 q 438 295 354 127 q 269 -41 248 -171 q 221 -343 330 -342 q 401 -341 473 -270 q 457 -247 447 -220 q 418 -139 452 -20 q 485 98 598 249 q 640 305 669 322 q 690 335 706 328 q 716 324 722 311 q 729 296 730 269 q 731 193 685 58 q 639 -76 568 -184 q 535 -234 500 -271 q 555 -333 644 -332 q 732 -332 791 -270 q 799 -263 806 -270 q 814 -277 806 -284 q 741 -353 644 -353 q 546 -353 486 -286 z m 488 -255 q 520 -220 551 -172 q 619 -67 664 64 q 710 195 709 269 q 709 288 705 299 q 702 307 697 309 q 692 312 679 305 q 654 289 614 236 q 506 91 472 -22 q 439 -136 467 -213 q 475 -236 488 -255 z"},"w":{"x_min":0,"x_max":214,"ha":214,"o":"m 134 21 q 135 22 136 22 q 142 25 149 33 q 155 38 162 46 q 185 73 197 99 q 209 125 210 136 l 211 148 q 210 159 220 160 q 231 160 232 150 q 232 144 232 134 q 231 125 218 94 q 204 64 178 32 q 161 13 149 6 q 140 0 131 1 q 116 2 112 22 q 108 39 116 71 q 100 54 82 36 q 61 15 48 7 q 38 0 31 0 q 24 -1 19 5 q 14 10 14 21 q 15 51 62 143 q 67 153 76 148 q 85 143 80 134 q 46 65 37 33 q 36 29 35 23 l 36 24 q 47 31 67 51 q 86 69 101 86 q 116 102 122 110 q 129 117 131 118 q 136 123 142 121 q 146 119 148 115 q 149 112 149 109 q 149 107 147 102 q 133 67 132 40 q 131 32 132 27 q 133 25 134 21 z"},"-":{"x_min":0,"x_max":232,"ha":232,"o":"m 108 138 q 104 138 101 135 q 98 132 98 128 q 98 123 101 120 q 104 117 108 117 q 108 117 133 117 q 158 117 184 117 l 209 117 q 213 117 216 120 q 219 123 219 128 q 219 132 216 135 q 213 138 209 138 l 209 138 l 208 138 l 208 138 l 207 138 l 207 138 l 206 138 l 205 138 l 204 138 l 203 138 l 202 138 l 201 138 l 200 138 l 199 138 l 198 138 l 197 138 l 196 138 l 195 138 l 194 138 l 193 138 l 192 138 l 191 138 l 190 138 l 189 138 l 188 138 l 187 138 l 186 138 l 185 138 l 183 138 l 182 138 l 181 138 l 180 138 l 179 138 l 177 138 l 176 138 l 175 138 l 173 138 l 172 138 l 171 138 l 169 138 l 168 138 l 167 138 l 165 138 l 164 138 l 162 138 l 161 138 l 159 138 l 158 138 l 156 138 l 155 138 l 153 138 l 152 138 l 150 138 l 149 138 l 147 138 l 145 138 l 144 138 l 142 138 l 140 138 l 139 138 l 137 138 l 136 138 l 134 138 l 132 138 l 130 138 l 129 138 l 127 138 l 125 138 l 123 138 l 122 138 l 120 138 l 118 138 l 116 138 z"},"E":{"x_min":0,"x_max":760,"ha":760,"o":"m 733 231 q 728 222 719 228 q 710 233 715 242 q 772 336 783 409 q 787 431 784 445 q 782 458 776 462 q 767 469 746 460 q 703 443 630 370 q 485 224 495 129 q 497 107 508 89 q 518 71 530 60 q 543 50 556 42 q 568 35 576 32 l 585 29 q 591 27 592 20 q 593 14 588 10 q 469 -73 376 -169 q 284 -265 254 -333 q 242 -360 243 -377 q 244 -392 256 -399 q 266 -404 284 -404 q 316 -404 367 -387 q 514 -340 794 -168 q 802 -162 808 -171 q 813 -180 804 -186 q 478 -386 331 -419 q 274 -432 246 -417 q 204 -395 235 -324 q 265 -257 354 -162 q 444 -67 560 16 q 482 53 474 126 q 463 232 615 384 q 691 460 738 479 q 770 493 788 479 q 807 466 806 429 q 805 392 786 338 q 766 285 733 231 z"},"s":{"x_min":0,"x_max":134,"ha":134,"o":"m 35 15 q 44 96 47 113 q 59 188 81 211 q 97 228 115 230 q 133 232 143 226 l 154 220 q 162 214 156 206 q 149 197 141 204 q 139 205 134 208 q 130 210 118 208 q 106 207 96 197 q 78 178 68 110 q 64 86 58 34 q 137 97 182 106 q 193 108 195 98 q 197 87 187 85 q 159 80 107 45 q 81 27 54 4 q 47 -52 39 -82 q 32 -108 16 -126 q -1 -144 -18 -149 q -37 -154 -48 -143 q -67 -124 -53 -90 q -37 -51 19 1 q 25 6 35 15 z m 30 -17 q -1 -47 -19 -73 q -34 -94 -37 -108 q -40 -121 -33 -128 q -32 -129 -29 -129 q -24 -129 -18 -126 q 9 -112 19 -77 q 25 -53 30 -17 z"},">":{"x_min":0,"x_max":222,"ha":222,"o":"m 130 208 q 128 208 127 208 q 124 208 122 207 q 117 204 117 198 q 117 195 118 192 q 118 192 132 169 q 145 146 159 123 l 173 100 l 11 -24 q 7 -27 7 -33 q 7 -36 9 -39 q 13 -43 18 -43 q 21 -43 24 -41 q 24 -41 66 -8 q 108 24 151 56 l 193 89 q 197 92 197 97 q 197 100 195 102 q 195 102 180 128 q 166 153 151 178 l 136 203 q 134 207 130 208 z"},"l":{"x_min":0,"x_max":87,"ha":87,"o":"m 40 98 q 56 134 74 174 q 84 195 110 254 q 136 314 154 354 q 173 394 196 439 q 220 484 237 504 q 249 520 260 525 q 270 530 279 527 q 287 524 289 514 q 291 502 282 475 q 258 398 185 268 q 112 138 58 87 q -69 -195 -75 -259 q -77 -269 -87 -268 q -97 -267 -96 -257 q -89 -189 39 97 l 40 97 z m 268 506 q 267 505 265 504 q 253 494 235 465 q 214 432 189 380 q 164 327 133 256 q 102 184 93 165 l 88 154 q 139 222 192 322 q 244 423 262 481 q 267 497 268 506 z"},"8":{"x_min":0,"x_max":164,"ha":164,"o":"m 124 61 q 124 18 68 22 q 33 25 33 48 q 33 83 86 147 q 89 144 91 141 q 105 124 114 102 q 124 79 124 61 z m 77 1 q 87 1 97 3 q 107 5 118 10 q 130 16 138 29 q 145 42 145 61 q 145 91 126 126 q 184 203 184 252 q 184 276 170 290 q 157 304 134 304 q 102 304 82 282 q 63 261 62 230 q 62 200 75 167 q 12 92 12 48 q 12 40 14 33 q 16 26 22 18 q 29 10 43 6 q 57 1 77 1 z m 115 145 q 115 145 114 146 q 112 148 110 150 q 108 153 106 156 q 104 158 102 160 q 101 163 100 164 q 103 169 100 174 q 98 179 92 180 q 75 215 87 249 q 99 283 134 283 q 170 283 162 240 q 156 202 115 145 z"},"\\":{"x_min":0,"x_max":224,"ha":224,"o":"m 70 244 q 68 244 66 244 q 64 244 62 243 q 56 240 56 234 q 56 232 57 229 q 57 229 87 164 q 117 99 146 34 l 176 -31 q 179 -37 186 -37 q 188 -37 190 -36 q 196 -33 196 -27 q 196 -24 195 -22 q 195 -22 165 43 q 135 108 106 173 l 76 238 q 74 242 70 244 z"},"e":{"x_min":0,"x_max":149,"ha":149,"o":"m 51 110 q 77 143 98 157 q 114 167 124 166 q 135 164 138 152 q 145 125 111 106 q 89 94 62 90 q 37 57 30 31 q 29 26 28 24 q 28 21 28 21 q 29 21 32 21 q 37 20 46 23 q 68 29 105 50 q 142 70 167 87 l 193 104 q 201 110 207 102 q 213 93 205 87 q 104 17 51 3 q 37 -1 27 0 q 18 2 13 8 q 4 18 10 36 q 17 61 39 93 q 34 98 37 105 q 41 113 50 110 z m 118 144 q 113 142 110 140 q 98 132 85 118 q 94 121 101 124 q 111 130 116 136 q 119 140 118 144 z"},"b":{"x_min":0,"x_max":249,"ha":249,"o":"m 168 59 q 194 91 206 119 q 213 137 213 151 q 214 163 207 170 q 204 173 196 170 q 185 167 169 156 q 155 145 138 130 q 120 114 102 94 q 83 74 70 60 q 57 46 40 26 q 23 6 20 3 q 14 -3 7 0 q 2 3 2 8 q 1 10 2 12 q 2 15 7 25 q 41 103 108 233 q 174 363 220 421 q 238 443 251 452 q 264 459 274 457 q 289 452 293 435 q 297 416 286 384 q 274 349 248 308 q 222 267 190 234 q 143 186 101 175 q 75 122 50 69 q 117 144 157 173 q 180 190 197 192 q 212 194 221 185 q 246 160 225 111 q 217 93 204 73 q 227 82 251 90 q 275 99 287 103 l 299 107 q 309 110 312 100 q 315 90 305 87 q 245 67 181 42 q 157 13 131 -11 q 79 -57 47 -62 q 28 -65 18 -53 q 10 -43 14 -32 q 18 -20 35 -7 q 70 20 168 59 z m 136 23 q 100 7 76 -6 q 50 -20 39 -31 q 36 -34 34 -36 q 33 -39 34 -40 q 36 -42 40 -42 q 45 -42 51 -39 q 77 -30 117 5 q 126 14 136 23 z m 115 202 q 144 216 175 249 q 205 280 230 319 q 255 358 266 391 q 274 413 273 426 q 273 435 268 436 q 268 437 265 436 q 263 434 259 432 q 250 424 237 408 q 192 351 115 202 z"},"%":{"x_min":0,"x_max":320,"ha":320,"o":"m 160 292 q 149 292 149 282 q 149 271 160 271 q 161 271 161 271 q 162 270 161 267 q 160 256 148 238 q 136 219 122 207 q 107 196 98 197 l 96 197 q 95 198 96 202 q 98 212 108 230 q 114 240 122 252 q 129 263 134 269 l 139 275 q 141 278 141 282 q 141 287 137 290 q 134 292 131 292 q 125 292 122 288 q 104 265 90 241 q 78 219 75 205 q 74 194 78 186 q 83 177 95 176 q 113 174 135 191 q 152 205 166 227 q 180 249 182 265 q 183 276 178 284 q 172 292 160 292 z m 257 274 q 252 273 250 270 l 58 17 q 56 14 56 10 q 56 5 60 2 q 62 0 66 0 q 71 0 74 4 l 266 257 q 268 260 268 264 q 268 269 264 272 q 262 274 258 274 q 257 274 257 274 z m 236 116 q 226 116 226 106 q 226 96 236 96 q 238 96 238 96 q 238 92 238 89 q 234 74 219 54 q 207 38 195 29 q 182 20 174 21 l 173 21 q 172 22 173 26 q 174 36 185 55 q 191 65 198 76 q 206 87 211 93 l 215 99 q 218 102 218 106 q 218 111 214 114 q 211 116 207 116 q 202 116 199 112 q 181 89 167 65 q 154 43 152 29 q 150 18 155 11 q 160 2 172 0 q 188 -2 207 12 q 222 23 236 41 q 254 65 258 85 q 261 97 256 106 q 251 117 236 116 z"},"m":{"x_min":0,"x_max":281,"ha":281,"o":"m 154 84 q 193 121 222 142 q 244 157 256 159 q 266 160 271 153 q 276 147 274 137 q 273 128 266 114 q 234 48 231 30 q 230 26 230 24 q 230 22 231 22 q 235 20 242 23 q 249 25 259 32 q 273 42 289 60 q 305 77 314 89 l 323 101 q 329 109 338 103 q 346 97 340 88 q 304 40 271 15 q 256 4 243 2 q 232 -1 223 3 q 206 10 210 33 q 214 54 247 123 q 250 128 252 135 q 242 131 236 126 q 192 96 139 38 q 136 33 134 29 q 129 20 124 18 q 120 15 116 16 q 111 18 109 22 q 107 26 108 30 q 110 38 119 48 l 121 50 q 131 74 141 116 q 143 124 143 133 q 139 131 133 126 q 119 115 100 94 q 81 72 58 45 q 35 18 30 12 q 28 9 26 7 q 24 5 23 4 l 22 3 q 16 -4 8 1 q 1 6 5 14 l 57 137 q 61 146 71 142 q 81 138 76 129 l 51 68 q 82 105 100 124 q 123 147 136 153 q 148 159 157 153 q 163 149 164 140 q 166 130 161 111 q 158 97 154 84 z"},"#":{"x_min":0,"x_max":368,"ha":368,"o":"m 260 292 q 260 292 259 292 q 257 292 256 291 q 252 289 250 285 q 250 285 240 263 q 230 241 221 218 l 211 196 l 157 196 q 152 196 149 193 q 146 190 146 186 q 146 181 149 178 q 152 175 157 175 q 157 175 168 175 q 179 175 191 175 l 202 175 l 164 88 l 112 88 q 107 88 104 85 q 101 82 101 78 q 101 73 104 70 q 107 67 112 67 l 155 67 l 132 14 q 131 12 131 10 q 131 3 137 0 q 139 0 141 0 q 148 0 151 6 q 151 6 158 22 q 164 37 171 52 l 178 67 l 227 67 l 204 14 q 203 12 203 10 q 203 3 209 0 q 211 0 213 0 q 220 0 223 6 q 223 6 230 22 q 236 37 243 52 l 250 67 l 295 67 q 300 67 303 70 q 306 73 306 78 q 306 82 303 85 q 300 88 295 88 l 295 88 l 294 88 l 293 88 l 292 88 l 291 88 l 290 88 l 289 88 l 288 88 l 287 88 l 286 88 l 285 88 l 284 88 l 282 88 l 281 88 l 279 88 l 278 88 l 277 88 l 275 88 l 274 88 l 272 88 l 270 88 l 269 88 l 259 88 l 297 175 l 331 175 q 336 175 339 178 q 342 181 342 186 q 342 190 339 193 q 336 196 331 196 l 331 196 l 330 196 l 329 196 l 328 196 l 327 196 l 326 196 l 325 196 l 324 196 l 323 196 l 321 196 l 320 196 l 318 196 l 317 196 l 315 196 l 306 196 l 341 277 q 342 279 342 281 q 342 288 336 291 q 334 292 332 292 q 329 292 328 291 q 324 289 322 285 q 322 285 312 263 q 302 241 293 218 l 283 196 l 234 196 l 269 277 q 270 279 270 281 q 270 288 264 291 q 262 292 260 292 z m 225 175 l 274 175 l 236 88 l 187 88 z"},",":{"x_min":0,"x_max":210,"ha":210,"o":"m 150 457 q 148 457 146 457 q 139 456 135 454 q 130 450 130 445 q 130 442 132 439 q 135 435 140 435 q 141 435 142 435 q 138 430 132 424 q 129 421 129 417 q 129 413 132 410 q 135 406 140 406 q 144 406 147 410 q 160 423 164 432 q 167 437 167 442 q 166 449 161 453 q 156 457 150 457 z"},"n":{"x_min":0,"x_max":214,"ha":214,"o":"m 47 58 q 126 134 163 152 q 174 157 181 156 q 187 155 190 150 q 193 146 193 140 q 193 132 186 119 q 156 57 155 32 q 154 27 155 24 q 156 23 157 22 q 161 20 168 23 q 176 25 186 32 q 201 43 219 60 q 237 77 247 89 l 257 101 q 264 109 272 102 q 280 96 273 88 q 234 39 198 15 q 182 4 169 2 q 158 -1 149 3 q 132 10 134 34 q 136 63 168 128 q 168 130 169 132 q 163 128 156 123 q 128 104 89 68 q 50 33 30 12 q 28 9 26 7 q 24 5 24 4 l 23 3 q 17 -4 10 1 q 2 6 5 14 l 58 137 q 62 146 72 142 q 81 138 77 129 z"},"h":{"x_min":0,"x_max":251,"ha":251,"o":"m 163 141 q 156 137 144 128 q 105 96 23 3 q 17 -3 10 1 q 4 4 4 11 q 5 13 7 20 q 20 51 70 166 q 120 281 153 351 q 180 408 186 415 q 194 422 201 416 q 205 414 205 409 q 206 406 204 398 q 203 391 196 390 q 187 375 172 342 q 120 232 47 62 q 120 140 150 158 q 159 163 166 164 q 173 164 178 160 q 183 156 184 148 q 185 140 182 128 q 168 77 174 47 q 178 27 188 22 q 200 17 223 31 q 240 41 258 58 q 276 76 287 89 l 297 101 q 303 109 312 103 q 320 97 313 89 q 273 37 234 13 q 202 -7 180 3 q 164 10 157 31 q 143 67 162 133 q 163 137 163 141 z"},"z":{"x_min":0,"x_max":181,"ha":181,"o":"m 160 141 q 158 142 154 142 q 147 142 136 138 q 120 132 100 119 q 80 106 68 96 l 56 86 q 48 79 41 87 q 34 95 42 102 q 91 142 128 157 q 146 164 158 163 q 170 161 176 153 q 181 148 180 139 q 180 132 173 121 q 151 85 79 27 q 84 25 89 23 q 104 15 114 -2 q 144 11 176 20 q 186 23 189 14 q 192 4 182 1 q 151 -9 123 -21 q 124 -22 124 -24 q 129 -44 130 -66 q 132 -89 123 -118 q 114 -148 98 -178 q 83 -208 54 -243 q 25 -278 -14 -311 q -67 -356 -103 -347 q -140 -338 -141 -288 q -141 -230 -94 -162 q -28 -67 95 -10 q 86 3 73 6 q 59 10 45 2 q 36 -4 30 5 q 25 14 34 19 q 52 30 88 62 q 125 94 146 118 q 155 130 158 137 q 159 139 160 141 z m 104 -29 q -14 -84 -77 -174 q -120 -237 -120 -287 q -119 -315 -105 -324 q -95 -330 -77 -325 q -55 -319 -27 -295 q 59 -222 90 -150 q 120 -79 105 -30 z"},"B":{"x_min":0,"x_max":828,"ha":828,"o":"m 534 391 l 572 479 q 576 489 586 485 q 596 481 591 471 l 563 406 q 628 438 679 455 q 754 480 799 473 q 835 467 852 441 q 867 418 860 385 q 852 344 807 289 q 728 192 569 82 q 585 84 600 85 q 699 91 749 71 q 791 53 794 18 q 795 0 782 -25 q 764 -59 722 -100 q 641 -178 516 -236 q 390 -295 257 -297 l 216 -390 q 212 -400 202 -396 q 193 -392 197 -382 l 235 -296 q 206 -296 179 -292 q 168 -290 170 -280 q 171 -270 182 -271 q 212 -275 244 -276 l 345 -44 q 306 -58 288 -55 q 279 -53 273 -47 q 267 -41 268 -32 q 268 -20 278 -9 q 290 4 316 17 q 343 31 383 44 l 521 361 q 463 330 401 292 q 339 255 306 232 l 273 210 q 265 204 259 212 q 253 221 261 227 q 394 320 534 391 z m 266 -276 q 393 -272 512 -216 q 631 -159 707 -85 q 747 -47 764 -15 q 774 4 773 16 q 771 39 741 51 q 696 70 602 64 q 567 62 530 56 q 440 -2 372 -33 z m 372 18 q 345 9 325 -1 q 306 -11 296 -20 q 288 -27 288 -32 q 288 -33 289 -33 q 289 -34 292 -34 q 296 -35 302 -34 q 322 -32 356 -17 z m 385 -4 q 398 3 412 10 q 442 26 475 46 q 434 38 398 27 z m 409 52 q 463 67 523 76 q 611 134 688 200 q 765 265 806 322 q 832 357 839 385 q 846 412 834 430 q 820 453 781 453 q 744 454 686 435 q 627 416 550 376 z"},"K":{"x_min":0,"x_max":644,"ha":644,"o":"m 354 38 q 392 122 453 258 q 514 393 530 432 q 551 481 556 487 q 561 492 567 490 q 573 489 575 483 q 576 479 574 472 q 571 457 556 411 q 552 401 543 404 q 542 404 541 404 q 525 367 472 249 q 419 131 386 57 q 455 103 568 201 q 681 299 759 374 l 837 448 q 845 456 852 448 q 859 441 852 434 q 839 421 816 399 q 793 377 730 318 q 666 259 609 209 q 552 159 486 106 q 420 53 378 27 q 374 25 371 23 q 361 0 351 -23 q 515 -212 599 -279 q 636 -309 658 -316 q 676 -322 680 -312 q 685 -303 694 -308 q 704 -312 699 -321 q 690 -341 667 -339 q 643 -338 602 -308 q 517 -245 341 -44 q 258 -237 197 -397 q 193 -406 184 -402 q 174 -399 178 -389 q 240 -226 326 -27 q 314 -12 310 -8 q 305 -3 300 3 q 294 6 290 12 q 287 17 286 19 q 285 22 285 24 q 286 30 291 33 q 294 34 297 34 q 301 33 305 29 q 307 26 312 22 q 313 22 316 22 q 330 24 354 38 z m 341 8 q 334 5 328 3 q 331 0 335 -5 q 337 -2 341 8 z"},"R":{"x_min":0,"x_max":806,"ha":806,"o":"m 287 -144 q 435 -51 575 58 q 715 166 792 259 q 839 316 854 359 q 870 404 851 433 q 799 510 676 514 q 597 516 514 488 q 431 460 384 418 q 345 384 349 356 q 352 337 376 321 q 385 315 380 306 q 374 298 365 303 q 332 324 328 353 q 323 392 370 434 q 420 477 507 507 q 594 537 677 534 q 811 531 868 444 q 888 414 880 372 q 869 318 808 246 q 727 147 576 32 q 426 -83 272 -177 l 251 -226 q 331 -226 472 -220 q 612 -215 713 -211 l 814 -206 q 824 -205 824 -216 q 825 -226 815 -227 q 418 -246 242 -247 l 171 -410 q 167 -420 158 -416 q 148 -411 152 -402 l 219 -247 q 184 -247 170 -245 q 161 -244 157 -242 q 149 -238 150 -230 q 150 -224 156 -221 q 202 -196 256 -163 l 516 434 q 520 443 530 439 q 539 435 535 426 z m 242 -196 q 214 -212 192 -225 q 204 -226 215 -226 q 222 -226 228 -226 z"},"T":{"x_min":0,"x_max":532,"ha":532,"o":"m 553 340 q 572 382 590 422 q 607 461 616 480 l 624 499 q 629 508 638 504 q 648 500 643 490 q 616 429 576 340 q 856 349 912 336 q 924 333 929 328 q 933 325 934 319 q 934 312 928 306 q 918 297 878 286 q 868 284 865 294 q 862 304 872 306 q 892 312 903 316 q 886 319 851 321 q 763 325 567 319 q 415 -22 345 -205 q 345 -265 338 -311 q 329 -385 308 -409 q 300 -418 291 -418 q 283 -418 278 -412 q 273 -405 273 -391 q 271 -363 285 -316 q 297 -274 325 -202 q 326 -41 290 94 q 264 197 221 251 q 186 296 143 302 q 131 302 123 301 q 109 301 107 302 q 103 302 101 305 q 97 310 99 315 q 100 319 103 321 q 106 322 111 323 q 128 325 144 323 q 164 324 239 328 q 314 331 397 334 q 480 337 553 340 z m 322 -269 q 311 -300 305 -322 q 294 -357 293 -382 q 293 -388 294 -393 q 309 -373 318 -309 q 320 -290 322 -269 z m 544 319 q 439 315 194 304 q 217 290 237 264 q 283 207 311 99 q 340 -13 345 -150 q 415 28 544 319 z"},"P":{"x_min":0,"x_max":857,"ha":857,"o":"m 345 -60 q 379 -48 416 -32 q 528 19 636 96 q 743 174 810 253 q 859 310 875 356 q 891 403 872 432 q 820 509 698 513 q 618 515 535 487 q 452 459 405 417 q 367 383 370 355 q 373 336 397 320 q 406 314 400 306 q 395 297 386 302 q 353 323 350 352 q 344 392 391 433 q 441 477 528 506 q 615 536 698 534 q 831 530 889 443 q 910 413 900 370 q 888 313 826 240 q 758 159 648 80 q 539 0 424 -51 q 377 -71 334 -85 l 192 -411 q 188 -421 178 -416 q 169 -412 173 -403 l 308 -93 q 209 -120 138 -109 q 127 -108 128 -98 q 130 -87 141 -89 q 214 -100 318 -68 l 537 433 q 541 443 550 438 q 560 434 556 425 z"},"t":{"x_min":0,"x_max":101,"ha":101,"o":"m 156 304 q 181 349 200 375 q 219 403 232 410 q 241 415 249 413 q 259 409 260 398 q 261 389 254 373 q 244 350 213 303 q 366 301 430 291 q 466 285 476 276 q 481 271 482 265 q 483 256 474 249 q 466 242 459 250 q 455 256 459 262 q 457 263 455 264 q 445 267 427 270 q 361 281 198 283 q 182 260 100 150 q 86 120 72 91 q 72 90 72 89 q 17 -29 -6 -97 q -14 -120 -15 -130 q -13 -131 -12 -132 q -6 -141 -15 -147 q -22 -152 -29 -149 q -34 -147 -36 -141 q -37 -136 -36 -129 q -34 -116 -25 -90 q -5 -31 41 72 q 37 73 35 78 q 33 81 33 84 q 33 89 38 98 q 47 113 82 161 q 115 229 145 283 q 80 283 9 282 q -62 281 -100 280 l -139 279 q -149 279 -150 290 q -150 300 -140 300 q -123 301 -94 302 q -66 302 12 303 q 90 304 156 304 z m 168 283 q 161 270 154 256 q 164 270 173 283 q 170 283 168 283 z m 188 303 q 220 350 233 376 q 236 383 238 389 q 238 388 237 388 q 229 380 217 363 q 201 340 180 304 l 182 304 q 183 304 184 304 q 185 303 185 303 z"},"M":{"x_min":0,"x_max":956,"ha":956,"o":"m 311 318 q 315 328 324 324 q 334 320 330 310 l 77 -281 q 302 71 458 271 q 542 378 596 429 q 639 468 665 474 q 682 478 693 470 q 704 464 709 448 q 714 431 713 403 q 706 277 567 -74 q 724 198 836 349 q 903 439 948 479 q 984 510 1009 510 q 1025 510 1032 495 q 1040 480 1035 446 q 1024 372 922 109 q 820 -154 797 -228 q 773 -310 777 -338 q 778 -344 781 -347 q 783 -349 788 -347 q 798 -345 813 -335 q 822 -329 828 -338 q 833 -347 824 -353 q 806 -365 792 -368 q 781 -370 773 -366 q 760 -360 757 -341 q 751 -308 777 -222 q 800 -148 902 114 q 1004 376 1014 449 q 1018 472 1015 483 q 1013 489 1009 489 q 992 489 962 463 q 918 425 853 337 q 783 243 696 101 q 608 -41 556 -135 l 503 -229 q 498 -238 490 -234 q 481 -229 485 -220 q 493 -202 506 -170 q 519 -138 554 -50 q 589 38 616 114 q 643 190 666 274 q 689 358 692 404 q 693 429 689 442 q 687 450 682 452 q 678 455 670 454 q 649 449 610 413 q 557 364 474 258 q 386 145 274 -20 q 161 -186 93 -294 l 24 -403 q 19 -411 10 -407 q 2 -403 6 -394 z"},"g":{"x_min":0,"x_max":210,"ha":210,"o":"m 144 166 q 147 190 150 201 q 154 216 159 221 q 163 225 167 225 q 178 225 179 213 q 180 203 174 184 q 170 172 164 159 q 163 146 160 112 q 158 78 157 62 q 205 89 257 105 q 267 108 270 98 q 273 88 263 85 q 207 67 155 36 q 150 -20 141 -67 q 98 -301 -48 -413 q -91 -446 -118 -435 q -144 -424 -144 -378 q -145 -342 -128 -289 q -111 -236 -79 -180 q 4 -34 135 49 q 137 72 140 116 q 120 84 91 53 q 49 7 30 1 q 22 -1 16 2 q 12 4 10 9 q 5 19 11 39 q 25 83 65 132 q 94 167 122 164 q 132 164 140 158 l 142 160 q 142 161 142 162 q 143 163 143 164 z m 133 22 q 15 -57 -61 -190 q -124 -302 -124 -378 q -123 -395 -119 -405 q -116 -413 -110 -416 q -103 -418 -92 -415 q -79 -410 -61 -396 q 79 -289 120 -64 q 128 -24 133 22 z m 130 140 q 126 143 120 144 q 103 145 81 119 q 44 73 31 32 q 29 27 28 23 q 30 24 32 25 q 48 36 76 67 q 109 103 130 140 z m 158 139 z"},"y":{"x_min":0,"x_max":218,"ha":218,"o":"m 169 165 q 174 178 176 181 q 179 184 184 184 q 190 185 193 180 q 197 175 194 168 q 192 164 188 157 q 186 152 185 147 q 180 131 176 66 q 220 90 267 104 q 277 108 280 98 q 283 88 273 85 q 222 69 174 42 q 171 2 168 -28 q 135 -286 -30 -413 q -73 -446 -100 -435 q -127 -424 -128 -379 q -129 -342 -113 -289 q -97 -236 -66 -180 q 18 -28 154 54 q 158 107 159 113 q 137 84 108 53 q 64 6 41 1 q 28 -2 20 7 q 12 17 16 38 q 25 84 65 134 q 72 142 80 136 q 88 129 81 121 q 50 83 39 44 q 36 34 36 26 q 35 24 36 21 q 39 22 41 22 q 59 30 92 67 q 146 125 169 165 z m 152 28 q 29 -51 -48 -190 q -110 -302 -107 -378 q -107 -394 -102 -404 q -99 -413 -92 -415 q -86 -418 -75 -415 q -61 -410 -43 -396 q 116 -275 147 -26 q 150 -1 152 28 z"},"@":{"x_min":0,"x_max":292,"ha":292,"o":"m 217 203 q 211 204 205 203 q 163 201 120 161 q 82 126 61 78 q 39 27 52 -5 q 60 -25 78 -34 q 97 -42 126 -38 q 135 -37 135 -28 q 135 -27 135 -27 q 134 -18 125 -18 q 124 -18 123 -18 q 100 -20 87 -14 q 76 -9 71 2 q 62 27 81 70 q 100 113 135 146 q 172 181 206 183 q 240 184 250 166 q 259 151 252 124 q 243 94 216 56 q 203 39 192 29 q 186 24 180 21 q 180 24 180 26 q 182 39 190 61 q 191 63 192 66 q 194 70 194 71 q 219 99 232 124 q 237 133 239 139 q 242 147 241 152 q 241 154 240 157 q 237 160 233 161 q 228 163 223 160 q 219 157 213 150 q 213 150 212 148 q 212 147 211 147 q 207 153 202 156 q 193 161 182 158 q 171 155 159 142 q 140 122 118 90 q 97 59 87 36 q 81 22 81 14 q 81 7 83 2 q 87 -4 95 -5 q 104 -5 119 4 q 133 13 154 31 q 155 32 156 33 q 157 34 158 36 q 160 37 161 37 q 160 32 160 28 q 159 17 162 11 q 166 0 178 0 q 190 -1 206 14 q 218 25 232 44 q 262 84 272 118 q 282 154 268 177 q 254 202 217 203 z m 190 139 q 190 139 191 138 l 195 132 q 197 129 199 128 q 187 107 177 82 q 160 64 140 47 q 121 30 108 22 q 106 20 103 19 q 105 24 106 27 q 115 48 136 79 q 157 110 174 128 q 182 137 188 138 q 189 139 190 139 z"},".":{"x_min":0,"x_max":174,"ha":174,"o":"m 86 33 q 82 33 79 30 q 77 27 77 23 q 77 18 80 15 q 79 13 79 10 q 79 4 84 1 q 90 -3 96 0 q 103 3 104 11 q 105 21 94 31 q 91 33 87 33 q 87 33 86 33 z m 90 20 q 93 20 95 19 q 93 20 91 20 q 90 20 90 20 z"},"p":{"x_min":0,"x_max":215,"ha":215,"o":"m 91 17 q 98 21 104 27 q 130 51 154 86 q 179 122 185 149 q 188 158 187 165 q 187 171 185 173 q 182 177 173 177 q 163 178 147 163 q 122 139 87 86 q 49 27 3 -60 q -43 -148 -69 -207 l -96 -265 q -100 -275 -110 -270 q -119 -266 -115 -257 l 81 188 q 85 198 95 193 q 104 189 100 180 q 97 172 92 160 q 87 149 76 124 q 65 100 58 84 q 51 67 51 67 q 59 81 69 97 q 106 154 133 178 q 155 199 173 198 q 192 198 201 187 q 213 172 206 144 q 194 96 145 39 l 261 103 q 270 107 274 98 q 278 88 269 84 l 100 -2 q 84 -13 72 -13 q 63 -14 61 -6 q 59 3 67 7 z"},"X":{"x_min":0,"x_max":764,"ha":764,"o":"m 530 2 q 616 103 711 228 q 806 353 858 427 l 911 501 q 917 509 926 503 q 934 497 928 489 q 906 457 868 404 q 830 351 726 215 q 623 79 535 -24 q 539 -47 543 -61 q 569 -178 608 -232 q 653 -296 720 -286 q 730 -284 732 -294 q 733 -305 723 -306 q 643 -319 591 -244 q 549 -186 522 -66 q 520 -58 518 -44 q 351 -237 255 -300 q 153 -366 122 -295 q 85 -207 116 -39 q 137 70 182 185 q 226 300 277 379 q 323 450 363 473 q 394 491 420 476 q 434 468 446 448 q 460 423 471 377 q 484 325 502 190 q 520 56 530 2 z m 513 -19 q 501 42 482 181 q 464 320 451 372 q 440 416 427 438 q 419 453 409 458 q 395 467 373 454 q 338 434 294 367 q 244 290 200 178 q 157 65 137 -43 q 107 -205 141 -287 q 148 -302 159 -307 q 170 -312 187 -309 q 210 -304 243 -282 q 342 -219 513 -19 z"},"*":{"x_min":0,"x_max":146,"ha":146,"o":"m 70 456 q 69 457 67 457 q 59 457 57 448 q 56 441 56 441 l 52 447 q 49 451 43 451 q 39 451 36 448 q 33 445 33 441 q 33 438 35 435 q 35 435 38 430 q 41 426 44 422 l 47 417 l 29 405 q 24 402 24 397 q 24 392 28 389 q 31 386 35 386 q 38 386 40 388 q 40 388 44 390 q 49 393 54 395 l 59 398 l 71 380 q 74 375 79 375 q 82 375 85 377 q 90 380 90 386 q 90 389 88 391 q 88 391 86 396 q 83 400 80 404 l 77 408 l 98 419 q 104 422 104 429 q 104 433 100 436 q 97 439 93 439 q 91 439 89 438 q 89 438 86 436 q 82 435 79 434 l 75 432 l 78 444 q 78 445 78 446 q 78 455 70 456 z"},"Y":{"x_min":0,"x_max":714,"ha":714,"o":"m 479 -208 q 487 -195 499 -172 q 617 48 777 437 q 593 175 451 60 q 388 8 337 -9 q 278 -29 236 -1 q 208 19 201 62 q 195 98 205 150 q 217 216 252 304 q 288 391 317 445 l 347 500 q 352 509 361 504 q 370 499 365 489 q 352 467 332 430 q 313 394 275 302 q 237 211 225 146 q 216 98 221 65 q 227 31 248 17 q 281 -6 331 11 q 377 27 438 76 q 488 116 545 178 q 602 240 648 299 q 694 358 732 411 q 771 464 793 497 l 814 530 q 819 538 828 533 q 836 529 833 520 q 813 471 780 391 q 748 311 664 122 q 579 -68 514 -187 q 522 -183 527 -181 q 611 -142 652 -184 q 659 -192 652 -199 q 644 -206 636 -199 q 621 -183 595 -184 q 570 -184 536 -200 q 516 -209 495 -223 q 475 -258 457 -286 q 421 -343 394 -371 q 373 -392 356 -395 q 337 -399 329 -391 q 322 -384 323 -373 q 325 -356 347 -328 q 398 -261 479 -208 z m 454 -252 q 398 -296 363 -341 q 349 -360 345 -372 q 344 -374 344 -375 q 349 -376 352 -375 q 369 -371 398 -335 q 423 -304 454 -252 z"},"c":{"x_min":0,"x_max":177,"ha":177,"o":"m 138 94 q 135 84 125 86 q 115 89 118 99 q 123 119 117 134 q 115 140 111 141 q 106 143 97 136 q 75 120 47 69 q 36 48 33 35 q 31 26 33 23 q 35 21 41 21 q 50 21 65 25 q 92 33 132 53 q 171 73 197 89 l 223 105 q 232 111 238 102 q 243 93 234 87 q 133 23 71 5 q 49 -1 35 1 q 23 2 16 11 q 10 19 11 33 q 13 51 29 80 q 59 134 85 153 q 102 165 117 161 q 131 158 137 141 q 144 121 138 94 z"},"!":{"x_min":0,"x_max":204,"ha":204,"o":"m 207 294 q 203 293 202 289 l 84 17 q 83 15 83 13 q 83 6 89 4 q 91 3 93 3 q 100 3 103 9 l 221 280 q 221 282 221 285 q 221 291 215 294 q 213 295 211 295 q 209 295 207 294 z m 72 -15 q 68 -15 64 -18 q 60 -21 60 -26 q 60 -29 61 -31 q 57 -34 57 -39 q 57 -43 60 -46 q 63 -50 68 -50 q 72 -50 75 -47 q 86 -37 85 -27 q 84 -19 77 -16 q 75 -16 73 -15 q 73 -15 72 -15 z m 75 -35 q 73 -36 71 -36 q 73 -36 75 -35 z"},"/":{"x_min":0,"x_max":170,"ha":170,"o":"m 62 -24 q 66 -23 68 -19 l 203 234 q 205 237 204 240 q 204 245 199 248 q 196 249 192 249 q 187 248 185 243 l 50 -9 q 48 -12 49 -16 q 50 -21 54 -23 q 57 -25 61 -24 q 61 -24 62 -24 z"},"[":{"x_min":0,"x_max":174,"ha":174,"o":"m 146 233 q 138 233 136 225 q 136 225 123 164 q 110 103 97 42 l 84 -18 q 84 -19 84 -21 q 84 -25 87 -28 q 90 -31 95 -31 l 150 -31 q 154 -31 157 -28 q 160 -25 160 -20 q 160 -16 157 -13 q 154 -10 150 -10 l 150 -10 l 149 -10 l 148 -10 l 147 -10 l 146 -10 l 145 -10 l 144 -10 l 143 -10 l 142 -10 l 141 -10 l 139 -10 l 138 -10 l 137 -10 l 136 -10 l 134 -10 l 133 -10 l 132 -10 l 130 -10 l 129 -10 l 127 -10 l 126 -10 l 124 -10 l 123 -10 l 121 -10 l 119 -10 l 118 -10 l 116 -10 l 107 -10 l 154 212 l 192 212 q 196 212 199 215 q 202 218 202 222 q 202 227 199 230 q 196 233 192 233 l 192 233 l 191 233 l 191 233 l 190 233 l 189 233 l 188 233 l 187 233 l 186 233 l 185 233 l 184 233 l 183 233 l 182 233 l 181 233 l 180 233 l 178 233 l 177 233 l 176 233 l 175 233 l 173 233 l 172 233 l 170 233 l 169 233 l 167 233 l 166 233 l 164 233 l 163 233 l 161 233 l 159 233 l 158 233 l 156 233 l 154 233 z"},"6":{"x_min":0,"x_max":136,"ha":136,"o":"m 69 24 q 43 17 41 35 q 35 75 92 191 q 121 191 138 156 q 154 121 138 80 q 121 39 69 24 z m 141 325 q 131 308 116 282 q 102 256 75 204 q 48 152 32 105 q 16 58 20 32 q 21 26 23 21 q 25 16 31 9 q 37 2 48 2 q 58 1 74 4 q 111 15 134 38 q 157 62 162 90 q 167 117 162 143 q 157 169 140 188 q 124 207 102 211 q 115 236 129 262 q 143 288 151 301 l 159 315 q 162 320 158 326 q 155 331 149 330 q 144 330 141 325 z"},"r":{"x_min":0,"x_max":164,"ha":164,"o":"m 188 164 q 187 164 187 164 q 185 163 182 162 q 169 157 148 138 q 125 118 94 84 q 63 50 44 27 l 25 3 q 19 -4 12 0 q 4 5 7 14 l 68 162 q 72 172 82 168 q 91 164 87 154 l 52 68 q 120 146 157 172 q 171 182 181 184 q 191 186 199 182 q 208 176 202 168 q 197 159 188 164 z"},"2":{"x_min":0,"x_max":186,"ha":186,"o":"m 222 241 q 222 264 206 279 q 190 294 168 294 q 127 294 100 251 q 72 208 92 163 q 96 155 104 157 q 112 159 112 167 q 112 168 108 178 q 105 188 105 199 q 105 228 126 250 q 146 273 168 273 q 181 273 191 264 q 201 256 201 241 q 201 198 120 118 q 96 94 67 70 q 38 45 21 32 l 4 19 q -2 15 0 8 q 3 0 11 0 l 158 7 q 164 7 166 12 q 169 18 166 23 q 163 28 157 28 l 43 23 q 85 56 120 88 q 156 121 189 166 q 222 210 222 241 z"},"{":{"x_min":0,"x_max":166,"ha":166,"o":"m 182 234 q 172 235 162 229 q 132 212 123 135 l 83 118 q 77 116 77 109 q 77 103 80 101 l 106 82 q 90 56 81 30 q 72 4 75 -10 q 78 -23 88 -29 q 97 -34 109 -32 q 121 -29 121 -21 q 121 -20 120 -19 q 119 -10 110 -10 q 109 -10 108 -11 q 101 -12 97 -10 q 96 -9 96 -8 q 93 3 102 26 q 106 37 112 50 q 119 64 124 72 l 128 79 q 130 82 130 85 q 130 90 126 93 l 108 106 l 137 118 q 143 121 145 142 q 150 198 173 212 q 177 214 180 214 q 184 214 186 213 l 188 212 q 191 210 194 210 q 199 210 203 215 q 204 218 204 221 q 204 227 199 230 q 192 234 182 234 z"},"9":{"x_min":0,"x_max":172,"ha":172,"o":"m 150 284 q 174 284 180 255 q 185 226 171 174 q 171 174 170 173 q 131 116 101 116 q 89 116 81 128 q 73 140 73 158 q 73 196 98 240 q 124 284 150 284 z m 70 22 q 67 22 64 23 q 62 24 60 24 q 51 24 50 15 q 49 5 62 2 q 65 1 70 1 q 98 1 130 42 q 162 83 182 138 q 202 194 202 236 q 202 282 176 298 q 147 315 117 293 q 87 271 70 232 q 52 192 52 158 q 52 116 80 100 q 109 85 150 118 q 124 60 95 35 q 80 22 70 22 z"}," ":{"x_min":0,"x_max":204,"ha":204,"o":""},"I":{"x_min":0,"x_max":578,"ha":578,"o":"m 573 426 q 540 427 528 428 q 522 429 519 429 q 517 430 515 431 q 509 436 512 443 q 513 448 518 450 q 522 451 542 451 q 562 452 577 447 q 607 445 651 444 l 678 499 q 682 508 692 504 q 701 499 697 490 q 688 473 674 443 q 713 442 758 440 q 804 439 829 438 l 855 438 q 865 438 865 428 q 865 417 854 417 q 755 420 664 423 q 403 -128 346 -309 q 468 -321 468 -321 q 478 -322 477 -332 q 476 -342 466 -341 q 406 -336 340 -329 q 338 -339 336 -348 q 358 -375 347 -405 q 343 -418 334 -420 q 326 -422 320 -414 q 315 -408 314 -394 q 311 -377 314 -354 q 309 -349 302 -344 q 284 -331 258 -321 q 194 -314 179 -310 q 173 -308 170 -306 q 167 -302 167 -297 q 167 -291 172 -288 q 175 -287 179 -286 q 185 -286 201 -285 q 223 -285 262 -300 q 292 -304 325 -307 q 371 -158 576 282 q 576 284 576 285 q 595 324 598 362 q 602 401 586 418 q 580 423 573 426 z m 313 -327 l 314 -327 q 316 -329 318 -331 l 319 -328 l 319 -327 z m 642 423 q 623 424 607 425 q 620 406 620 378 q 631 401 642 423 z"},"H":{"x_min":0,"x_max":776,"ha":776,"o":"m 737 172 q 542 119 400 82 q 318 -99 274 -211 q 276 -267 270 -314 q 261 -383 238 -409 q 230 -418 221 -418 q 213 -418 208 -412 q 203 -405 203 -391 q 201 -363 215 -316 q 227 -276 253 -208 q 248 -82 212 -8 q 199 19 185 31 q 133 21 120 23 q 106 25 107 36 q 107 40 110 44 q 113 48 121 53 q 149 69 174 61 q 182 58 189 53 q 257 67 385 100 q 426 191 472 291 q 519 391 545 445 l 571 499 q 575 508 584 504 q 594 499 589 490 q 500 305 410 106 q 556 144 749 197 q 854 421 893 474 q 899 482 904 485 q 907 488 910 488 q 915 489 918 487 q 922 485 924 481 q 927 475 923 458 q 916 422 880 326 q 877 317 867 320 q 857 324 861 334 q 888 406 898 443 q 875 405 834 326 q 807 271 775 204 l 840 222 q 850 225 853 215 q 856 205 846 202 q 814 193 764 179 q 630 -107 544 -340 q 540 -349 530 -346 q 520 -342 524 -332 q 607 -107 737 172 z m 253 -267 q 241 -299 235 -322 q 224 -357 223 -382 q 223 -388 224 -393 q 242 -371 249 -311 q 252 -290 253 -267 z m 374 76 q 280 52 220 39 q 214 37 209 36 q 221 22 231 1 q 261 -60 271 -163 q 311 -65 374 76 z"},"4":{"x_min":0,"x_max":191,"ha":191,"o":"m 78 131 q 71 131 71 143 q 71 177 119 259 q 122 264 119 270 q 116 275 110 275 q 104 275 101 270 q 50 183 50 143 q 50 111 77 110 q 111 109 164 164 q 103 32 103 13 q 103 5 108 2 q 114 -1 120 2 q 126 5 126 12 q 126 15 124 18 q 134 56 231 255 q 250 290 250 297 q 250 305 242 307 q 234 309 230 301 q 230 300 230 299 q 229 298 228 296 q 227 295 226 293 q 225 291 224 289 q 223 287 222 284 q 220 281 219 278 q 218 275 216 272 q 214 268 212 265 q 180 206 139 168 q 98 131 78 131 z"},"~":{"x_min":0,"x_max":272,"ha":272,"o":"m 126 142 q 113 142 104 136 q 97 131 92 124 q 87 117 86 112 l 84 108 q 84 106 84 105 q 84 97 92 95 q 93 95 95 95 q 103 95 105 103 q 108 113 115 118 q 122 122 131 121 q 146 118 166 102 q 191 82 210 81 q 229 80 241 93 q 247 100 251 108 q 255 117 256 122 l 257 128 q 257 128 257 129 q 257 138 248 140 q 247 140 246 140 q 237 140 236 131 q 233 115 226 108 q 220 101 212 102 q 198 103 179 118 q 155 137 135 141 q 131 142 126 142 z"},"D":{"x_min":0,"x_max":888,"ha":888,"o":"m 508 385 q 631 426 727 431 q 806 434 860 410 q 913 385 930 330 q 940 298 924 250 q 902 184 835 96 q 758 -5 644 -104 q 530 -204 413 -270 q 233 -370 107 -353 q 96 -351 98 -341 q 99 -331 110 -332 q 228 -349 402 -252 q 518 -187 630 -88 q 742 10 818 109 q 883 194 905 257 q 919 298 910 324 q 881 416 728 410 q 627 405 497 359 l 231 -253 q 227 -263 218 -258 q 208 -254 212 -245 l 470 349 q 360 306 270 248 q 178 190 140 136 q 112 96 121 68 q 130 36 185 18 q 195 14 192 4 q 188 -5 178 -2 q 113 20 101 62 q 89 100 123 148 q 164 205 258 266 q 359 330 482 375 l 500 418 q 504 428 514 424 q 524 420 519 410 z"},"^":{"x_min":0,"x_max":262,"ha":262,"o":"m 184 184 q 179 183 177 180 l 92 68 q 90 65 90 62 q 90 57 94 53 q 97 51 100 51 q 105 51 109 55 q 177 146 177 146 l 185 61 q 186 51 196 51 q 196 51 197 51 q 206 52 206 62 q 206 62 206 63 q 206 63 204 91 q 201 119 198 147 l 195 175 q 194 184 185 184 q 184 184 184 184 z"},"0":{"x_min":0,"x_max":161,"ha":161,"o":"m 54 23 q 44 21 40 25 q 36 29 37 42 q 41 81 90 170 q 105 197 122 225 q 139 253 149 268 l 159 283 q 162 289 159 294 q 156 299 151 300 q 146 300 141 295 q 126 272 106 240 q 86 207 53 142 q 20 77 17 44 q 15 29 19 19 q 28 -3 58 2 q 92 8 122 44 q 151 79 168 124 q 184 169 192 212 q 199 256 194 281 q 189 300 177 305 q 171 308 166 304 q 162 300 162 294 q 163 289 169 286 q 178 279 174 234 q 169 192 154 146 q 138 101 111 64 q 84 28 54 23 z"},"F":{"x_min":0,"x_max":536,"ha":536,"o":"m 290 94 q 293 122 294 147 q 295 209 284 250 q 272 293 245 310 q 220 326 179 319 q 141 305 133 303 q 124 300 122 300 q 117 299 114 303 q 111 306 111 311 q 111 315 114 318 q 116 320 126 323 q 151 334 173 339 l 184 343 q 333 394 441 428 l 473 499 q 477 508 486 504 q 496 500 492 490 q 483 470 468 437 q 579 471 658 489 q 770 516 817 510 q 843 507 852 494 q 863 478 849 454 q 833 427 782 384 q 774 377 768 385 q 761 393 769 399 q 818 441 831 465 q 838 477 835 482 q 834 485 825 488 q 815 491 796 490 q 705 489 456 411 q 382 246 320 101 q 431 126 514 124 q 525 124 524 114 q 524 103 514 103 q 424 106 310 78 l 309 75 q 294 -55 244 -209 q 221 -281 197 -336 q 173 -390 158 -407 q 150 -416 141 -416 q 134 -417 129 -410 q 124 -404 123 -390 q 121 -362 135 -315 q 164 -216 274 46 q 272 45 270 45 q 247 44 237 47 q 230 49 227 55 q 225 60 228 66 q 230 72 240 76 q 254 84 290 94 z m 276 -5 q 181 -230 155 -321 q 145 -356 144 -380 q 143 -387 144 -392 q 162 -370 191 -296 q 247 -156 276 -5 z m 285 71 q 278 68 270 66 q 277 65 280 58 l 283 66 z m 430 403 q 342 375 234 338 q 243 335 251 331 q 293 308 308 240 q 316 198 314 140 q 368 264 430 403 z"},"`":{"x_min":0,"x_max":118,"ha":118,"o":"m 58 457 q 52 458 48 455 q 44 452 44 446 q 44 443 45 441 q 48 436 54 436 q 56 434 60 427 q 63 422 69 422 q 72 422 74 424 q 79 427 79 432 q 79 435 78 438 q 72 448 68 451 q 65 455 60 457 q 59 457 58 457 z m 60 437 q 58 437 56 437 q 58 437 60 437 z"},"k":{"x_min":0,"x_max":197,"ha":197,"o":"m 34 32 q 28 18 26 12 q 25 11 24 9 q 24 6 22 3 q 17 -3 9 1 q 3 4 4 11 q 4 13 6 20 q 19 51 70 166 q 120 281 152 351 q 179 408 186 415 q 193 422 200 416 q 204 414 205 409 q 205 406 204 398 q 202 391 195 390 q 187 375 171 342 q 129 252 62 97 q 84 120 112 139 q 151 167 170 168 q 180 168 185 161 q 191 153 185 137 q 181 128 172 132 q 162 136 166 145 l 166 146 q 163 145 161 144 q 146 138 124 122 q 76 89 57 59 q 52 52 51 48 q 50 45 50 44 q 51 43 54 42 q 60 40 71 41 q 145 45 242 104 q 251 109 256 100 q 262 92 253 86 q 151 24 72 20 q 43 18 34 32 z m 17 20 q 14 21 12 21 q 9 20 6 17 q 11 22 17 20 z"},"u":{"x_min":0,"x_max":212,"ha":212,"o":"m 35 26 q 36 26 37 27 q 48 33 64 49 q 82 67 106 94 q 131 122 147 142 l 163 161 q 169 169 177 163 q 185 157 180 149 q 160 118 147 84 q 136 58 134 41 q 133 29 136 23 q 138 21 142 21 q 147 21 155 25 q 190 39 257 102 q 264 109 271 102 q 278 94 271 87 q 189 10 151 1 q 127 -4 118 13 q 112 25 113 43 q 115 59 123 83 q 97 52 79 35 q 53 8 38 4 q 28 2 22 7 q 16 11 14 19 q 13 26 15 38 q 20 59 34 88 q 49 118 66 138 q 73 146 81 140 q 89 133 82 125 q 67 106 54 80 q 40 53 36 34 q 35 31 35 26 z"},"]":{"x_min":0,"x_max":113,"ha":113,"o":"m 64 234 q 60 234 57 230 q 54 227 54 223 q 54 219 57 216 q 60 213 64 213 l 107 213 l 60 -10 l 22 -10 q 18 -10 15 -13 q 12 -16 12 -20 q 12 -24 15 -27 q 18 -30 22 -30 l 68 -30 q 77 -30 78 -22 q 78 -22 91 38 q 104 99 117 160 l 130 221 q 130 222 130 223 q 130 227 127 230 q 124 234 120 234 z"},"U":{"x_min":0,"x_max":728,"ha":728,"o":"m 781 390 q 804 442 832 499 q 837 508 846 504 q 855 500 851 490 q 832 448 799 382 q 697 159 652 7 q 608 -145 609 -227 q 609 -263 617 -280 q 621 -288 625 -289 q 635 -292 632 -302 q 629 -312 619 -309 q 606 -305 599 -289 q 588 -268 588 -227 q 587 -102 673 132 q 556 -88 463 -224 q 386 -336 330 -383 q 286 -420 253 -418 q 199 -414 185 -357 q 173 -310 190 -228 q 203 -162 234 -75 q 264 12 298 90 q 333 168 365 236 q 397 304 419 345 l 440 385 q 445 395 454 390 q 463 385 458 376 q 450 360 436 334 q 422 307 385 230 q 348 152 317 81 q 286 10 254 -78 q 223 -167 210 -232 q 194 -310 205 -352 q 215 -394 254 -397 q 279 -399 317 -367 q 371 -322 446 -212 q 590 -2 781 390 z"},"o":{"x_min":0,"x_max":139,"ha":139,"o":"m 89 152 q 98 162 106 160 q 116 157 116 144 q 117 136 114 120 q 117 115 122 110 q 140 92 158 88 q 174 85 182 98 q 186 108 196 103 q 205 98 200 89 q 185 61 153 68 q 130 73 108 95 l 107 96 q 93 48 75 21 q 67 9 58 4 q 45 -4 33 2 q 25 7 22 18 q 19 28 23 45 q 31 84 57 127 q 66 143 71 147 q 81 153 89 152 z m 85 131 q 84 130 83 130 q 78 123 75 117 q 51 76 43 41 q 41 30 42 24 q 42 23 42 22 q 43 21 43 21 q 45 20 49 23 q 56 29 64 44 q 77 67 87 100 q 87 101 87 103 q 88 115 87 125 q 87 125 86 126 q 86 127 86 127 q 86 129 85 130 z"},"N":{"x_min":0,"x_max":811,"ha":811,"o":"m 454 318 q 459 328 468 324 q 478 320 474 310 l 207 -295 q 557 220 736 413 q 787 468 821 492 q 847 510 864 510 q 880 510 888 495 q 895 480 891 446 q 880 372 778 109 q 675 -154 653 -228 q 628 -310 633 -338 q 634 -344 636 -347 q 638 -349 644 -347 q 653 -345 668 -335 q 677 -329 683 -338 q 689 -347 680 -353 q 661 -365 648 -368 q 637 -370 629 -366 q 615 -360 612 -341 q 607 -308 633 -222 q 655 -148 757 114 q 859 376 870 449 q 873 472 870 483 q 869 489 864 489 q 853 489 833 475 q 801 453 752 399 q 657 297 508 96 q 360 -104 259 -254 l 159 -404 q 153 -411 144 -406 q 136 -402 140 -394 z"},"+":{"x_min":0,"x_max":181,"ha":181,"o":"m 103 158 q 102 158 101 157 q 97 156 95 152 q 95 152 91 142 q 87 133 83 124 l 79 115 l 35 115 q 30 115 27 112 q 24 109 24 104 q 24 100 27 97 q 30 94 35 94 q 35 94 44 94 q 52 94 61 94 l 70 94 l 56 63 q 55 61 55 59 q 55 52 61 49 q 63 48 66 48 q 72 48 75 55 l 92 94 l 135 94 q 140 94 143 97 q 146 100 146 104 q 146 109 143 112 q 140 115 135 115 l 135 115 l 134 115 l 133 115 l 132 115 l 131 115 l 130 115 l 129 115 l 128 115 l 127 115 l 126 115 l 125 115 l 123 115 l 122 115 l 120 115 l 119 115 l 118 115 l 116 115 l 114 115 l 113 115 l 111 115 l 101 115 l 114 144 q 115 146 115 148 q 115 155 109 157 q 107 158 104 158 q 104 158 103 158 z"},"G":{"x_min":0,"x_max":717,"ha":717,"o":"m 469 -258 q 578 -84 722 247 q 587 70 481 -40 q 377 -149 316 -173 q 293 -182 278 -176 q 263 -169 258 -151 q 252 -128 260 -88 q 280 18 370 190 q 460 361 543 446 q 611 516 667 512 q 708 510 738 469 q 748 455 756 437 q 764 419 767 409 q 770 399 770 398 q 773 388 762 386 q 752 383 750 394 q 742 428 721 456 q 697 489 666 491 q 620 495 558 432 q 477 348 388 180 q 300 12 280 -92 q 275 -122 277 -139 q 279 -154 286 -157 q 294 -160 309 -154 q 365 -132 466 -26 q 529 39 602 128 q 674 217 716 274 l 757 330 q 763 338 771 334 q 779 329 775 320 q 759 281 731 216 q 703 151 629 -2 q 555 -155 497 -252 q 515 -249 532 -246 q 550 -243 559 -242 l 568 -241 q 578 -239 580 -250 q 581 -260 570 -261 q 530 -266 482 -277 q 438 -347 403 -383 q 380 -408 360 -417 q 343 -426 329 -423 q 313 -420 301 -405 q 285 -383 287 -362 q 291 -334 325 -311 q 370 -281 469 -258 z m 453 -283 q 374 -303 336 -328 q 310 -346 308 -364 q 307 -377 318 -393 q 324 -401 332 -402 q 340 -404 351 -399 q 367 -391 388 -369 q 417 -338 453 -283 z m 770 398 z"},"q":{"x_min":0,"x_max":252,"ha":252,"o":"m 225 207 l 226 208 q 230 218 240 214 q 249 209 245 200 l 245 199 l 245 199 l 244 198 q 234 176 220 147 q 222 142 219 137 q 217 135 214 134 q 179 58 150 -7 l 295 103 q 303 109 310 101 q 316 93 308 86 l 133 -46 q 125 -67 117 -85 q 122 -90 125 -95 q 145 -121 133 -163 q 123 -199 97 -231 q 78 -254 65 -257 q 53 -261 47 -251 q 44 -245 45 -235 q 46 -218 58 -182 q 69 -147 91 -93 q 83 -89 73 -87 q 67 -85 66 -78 q 64 -72 69 -68 l 116 -33 q 145 33 182 113 q 145 73 96 34 q 65 9 47 3 q 32 -2 22 5 q 16 10 15 20 q 13 29 17 44 q 23 68 40 100 q 58 133 76 154 q 103 186 150 180 q 172 176 197 164 q 217 189 225 207 z m 108 -107 q 88 -156 77 -189 q 68 -217 66 -232 q 66 -233 66 -233 q 73 -228 81 -218 q 104 -189 113 -157 q 122 -125 108 -107 z m 100 -71 l 98 -73 q 98 -73 99 -74 z m 184 147 q 164 156 147 159 q 112 164 92 141 q 75 121 58 90 q 42 59 37 37 q 35 29 35 24 q 35 23 36 22 q 41 23 45 24 q 59 31 83 50 q 143 98 184 147 z m 217 152 z"},"d":{"x_min":0,"x_max":196,"ha":196,"o":"m 148 143 q 177 181 207 226 q 237 270 253 295 l 268 321 q 273 329 282 324 q 290 320 286 311 l 89 -145 q 84 -154 74 -150 q 65 -146 70 -136 q 70 -136 216 201 q 188 160 161 126 q 169 111 169 108 q 173 99 164 95 q 154 91 150 101 q 149 104 147 108 q 105 56 69 25 q 45 3 31 1 q 23 -1 17 4 q 9 9 9 22 q 9 34 16 53 q 36 102 73 141 q 89 157 106 160 q 128 164 148 144 z m 135 126 q 134 128 132 129 q 121 142 109 140 q 99 138 88 126 q 68 106 52 80 q 37 53 31 33 q 30 27 30 23 q 30 23 30 22 q 32 23 34 24 q 42 29 55 40 q 92 72 135 126 z m 169 108 z"},"1":{"x_min":0,"x_max":88,"ha":88,"o":"m 36 19 q 39 32 53 64 q 67 97 85 135 q 103 173 120 208 q 137 244 148 268 q 160 293 161 293 q 164 301 157 306 q 150 311 144 305 l 87 250 q 82 245 84 238 q 87 232 94 232 q 98 232 101 235 l 116 249 q 14 39 14 14 q 14 6 20 3 q 26 0 32 3 q 38 6 38 13 q 38 16 36 19 z"},"5":{"x_min":0,"x_max":182,"ha":182,"o":"m 166 59 q 166 34 146 18 q 125 1 97 1 q 58 1 34 32 q 9 62 27 103 q 30 110 38 108 q 47 107 47 98 q 47 97 44 88 q 41 79 41 71 q 41 49 58 35 q 75 21 98 22 q 122 22 137 38 q 144 46 146 54 q 147 63 142 76 q 138 88 130 102 q 122 115 108 135 q 84 171 76 188 q 68 205 68 222 q 68 259 91 295 q 94 300 100 300 l 202 300 q 212 300 212 290 q 212 279 202 279 l 106 279 q 80 232 92 202 q 98 188 132 137 q 166 86 166 59 z"}}}
